<?xml version="1.0" encoding="UTF-8"?>
<svg width="41px" height="28px" viewBox="0 0 41 28" version="1.1" xmlns="http://www.w3.org/2000/svg" xmlns:xlink="http://www.w3.org/1999/xlink">
    <!-- Generator: Sketch 49.1 (51147) - http://www.bohemiancoding.com/sketch -->
    <title>gh_icon</title>
    <desc>Created with Sketch.</desc>
    <defs></defs>
    <g id="Symbols" stroke="none" stroke-width="1" fill="none" fill-rule="evenodd">
        <g id="header-scroll" transform="translate(-38.000000, -37.000000)" fill="#32F396" fill-rule="nonzero">
            <g id="gh_icon" transform="translate(38.000000, 37.000000)">
                <path d="M20.574772,4.11210762 L10.4680851,0.0238565022 C10.4680851,3.31542601 11.9815957,6.93408072 13.2894833,8.18026906 L0.00685410334,8.18026906 C1.28420973,15.2436771 10.2880091,21.0502242 19.20769,21.0502242 L14.9294833,25.3632287 C13.9717781,26.3281614 14.6497112,27.9780269 16.0043313,27.9780269 C16.407514,27.9779135 16.7941424,27.8164495 17.0791793,27.529148 L23.4908815,21.0703139 L23.5712614,21.1035874 L23.5712614,26.3928251 C23.5712614,27.2365919 24.2261398,27.9623318 25.0629635,27.9755157 C25.4700609,27.9817362 25.8626254,27.8231832 26.1527366,27.5353669 C26.4428477,27.2475505 26.6062629,26.8545218 26.606383,26.4443049 L26.606383,21.0452018 L29.6471125,21.0452018 L29.6471125,26.3903139 C29.6471125,27.2334529 30.3019909,27.9598206 31.1388146,27.9730045 C31.5469834,27.9807589 31.9410987,27.8227991 32.2324519,27.5346788 C32.5238051,27.2465586 32.6879145,26.8524882 32.6878419,26.4411659 L32.6878419,21.0420628 C32.6909574,13.3640359 28.1018237,7.21973094 20.574772,4.11210762 Z" id="Shape"></path>
                <path d="M36.7722644,8.18026906 L34.8443921,8.18026906 C34.8443921,6.00869955 35.3540881,3.89112108 36.2345289,1.94179372 C36.6401672,1.04340807 35.9753191,0.0238565022 34.9958055,0.0238565022 C34.5055779,0.0243716906 34.0534404,0.290268806 33.8119149,0.720089686 C32.5198397,2.99118304 31.8379536,5.56252251 31.8335714,8.18026906 C31.8336522,13.7369082 35.1958536,18.7320827 40.3195745,20.7878027 L40.9675988,21.047713 L40.9675988,12.4072646 C40.9675988,10.0727594 39.0892836,8.18026906 36.7722644,8.18026906 Z" id="Shape"></path>
            </g>
        </g>
    </g>
</svg>